<?xml version="1.0" encoding="utf-8"?>
<!-- Generator: Adobe Illustrator 16.0.0, SVG Export Plug-In . SVG Version: 6.00 Build 0)  -->
<!DOCTYPE svg PUBLIC "-//W3C//DTD SVG 1.1//EN" "http://www.w3.org/Graphics/SVG/1.1/DTD/svg11.dtd">
<svg version="1.1" id="Layer_1" xmlns="http://www.w3.org/2000/svg" xmlns:xlink="http://www.w3.org/1999/xlink" x="0px" y="0px"
	 width="262px" height="105px" viewBox="0 0 262 105" enable-background="new 0 0 262 105" xml:space="preserve">
<path fill="#F7D2B6" d="M38.975,93.352c0,0,7.462-28.148,26.458-52.731c14.731-19.065,40.896-35.979,48.494-35.533
	c0,0,1.816-1.271,3.255,0.168c1.531,1.531,0.72,3.236-2.517,3.236c-8.48,0-31.578,11.345-48.339,32.575
	C54.221,56.4,51.354,64.31,43.532,89.115c0,0-2.458,9.161-2.458,11.173c0,0-8.75,2.592-8.571-3.341
	c0.307-10.104-8.511-27.668-20.131-33.479c0,0,0,1.564-1.788,1.788c-1.788,0.223-3.701-3.853-2.137-6.534
	c1.565-2.682,2.906-3.8,7.151-0.671C19.844,61.181,30.036,63.629,38.975,93.352z"/>
<path fill="#F7D2B6" d="M55.199,89.306c0,0,1.501,5.57,6.315,3.966s6.001-8.86,8.249-9.663c2.246-0.802,2.664,3.726,2.664,3.726
	s-2.086,4.813,1.604,5.616s2.407-4.654,2.407-4.654c2.568-2.888,5.135,1.124,6.9,2.568s3.53-0.16,3.53-0.16
	c4.172,3.209,9.01-0.597,9.01-0.597c4.453,2.528,8.184-2.888,8.184-2.888c2.648,7.101,10.591,0.48,10.591,0.48
	s-0.361,8.305,7.197,6.373c5.92-1.513,7.221-9.948,3.049-12.517c-4.172-2.567-8.344,0.802-8.344,0.802
	c-2.247,0.963-2.086,4.173-2.086,4.173s0,0-2.728,1.444s-4.654-2.728-4.012-4.333c0.642-1.604-0.481-2.246-2.407-1.444
	c-1.926,0.803-1.926,3.852-1.926,3.852c-4.012,6.259-7.381,3.05-7.381,3.05s1.187-3.084-1.34-4.528
	c-1.481-0.846-0.425-2.052-0.425-2.052c0.481-1.765-4.17-2.59-4.333-0.962c-0.321,3.21-0.899,4.258-3.788,6.985
	c-2.889,2.729-3.009-3.37-6.258-3.851c-3.708-0.55-4.557,1.196-4.557,1.196s-0.802-3.369-3.691-4.492
	c-2.888-1.123-3.667,2.092-3.667,2.092c-1.564,3.25-2.527,6.619-5.777,7.703c-2.163,0.721-4.035-2.896-3.394-5.623
	c0.642-2.728,0.963-4.653-2.086-4.012S55.199,89.306,55.199,89.306 M93.832,88.062l-3.49-1.323c0,0,0.858-0.367,1.34-2.935
	c0,0-0.022,0.993,1.283,1.926C94.089,86.532,93.832,88.062,93.832,88.062z M124.579,89.741c-1.444,3.369-6.419,4.172-6.579-1.284
	c-0.161-5.455,2.888-5.456,2.888-5.456c0.181-0.058,0.356-0.105,0.525-0.145C125.429,81.942,125.965,86.507,124.579,89.741z"/>
<path fill="#F7D2B6" d="M59.628,70.083c0,0-2.745,2.212-4.309,2.453s-1.588,1.158,0.458,2.241s3.37,0.481,4.573-1.083
	C61.554,72.129,61.193,69,59.628,70.083z"/>
<path fill="#F7D2B6" d="M105.988,74.102c0,0-1.926-0.361-1.805,1.443c0.121,1.806,1.823,2.267,3.851,1.203
	c2.527-1.323,2.287-1.083,1.564-1.563c-0.722-0.482-0.361,0-1.324-0.241S105.988,74.102,105.988,74.102z"/>
<path fill="#F7D2B6" d="M168.588,77.786c0,0-2.408-1.806-3.25-0.603c-0.842,1.204-0.24,2.167,1.324,2.769s2.391-0.797,2.872-2
	C170.016,76.748,168.588,77.786,168.588,77.786z"/>
<path fill="#F7D2B6" d="M117.662,85.654c0,0,6.018-2.166,6.259-3.73l0.963,0.24c0,0-0.723,1.686-7.222,4.333"/>
<path fill="#F7D2B6" d="M119.227,82.405c0,0,2.648,1.083-0.241,2.768c0,0,5.055-1.926,4.935-3.249"/>
<path fill="#F7D2B6" d="M125.846,82.525c0,0,2.166,3.129,5.295-0.24l0.241,1.083c0,0-1.564,2.647-5.055,0.722"/>
<path fill="#F7D2B6" d="M250.869,91.347c-5.295,1.123-18.27,5.26-26.936,5.741s-23.83-2.968-24.15-10.028
	c0,0,3.529-2.89,1.926-5.136c-1.605-2.246-6.179-3.61-5.576,4.935c0,0-0.241,3.972-4.574,3.49c-4.332-0.481-2.287-4.935-4.396-7.187
	c0,0-3.867,2.975-5.954,0.567c0,0,1.685-3.611,0.338-4.9c-2.139-2.045-4.911-1.118-4.976,2.086
	c-0.039,1.965,2.592,4.018,2.592,4.018s-1.686,4.854-5.536,5.656c-3.851,0.803-4.597-2.612-4.437-3.094s0.963-3.37-1.283-3.691
	c-2.248-0.32-2.584,4.379-2.584,4.379s-2.703,4.757-4.694,2.526c-3.69-4.132-0.642-8.144-3.852-8.625c0,0-1.243-0.4-4.935,0.562
	c-3.69,0.962-6.018,4.332-6.562,6.773c0,0-2.945,3.216-4.332-1.443c-0.623-2.093-0.963-4.012-3.852-4.814s-3.531,1.444-3.531,1.444
	s-3.048-4.814-3.37-0.642c-0.235,3.057,1.284,5.135,0.803,6.578c-0.481,1.444,0.962,4.173,2.567,2.567
	c1.605-1.604,0.398-2.798,0.963-4.653c1.124-3.69,3.049-2.246,4.012,0.643c0.963,2.888,3.795,3.655,6.924,1.369
	c0,0,1.902,3.926,5.914,3.444c4.012-0.48,5.296-3.209,5.296-3.209s2.872,5.421,8.89-1.078c0,0,3.4,5.9,8.906,2.648
	c4.678-2.763,6.018-7.102,6.018-7.102s2.871,1.53,4.934,0.241c0,0,0.152,5.439,4.951,5.933c5.521,0.566,6.242-2.562,6.242-2.562
	s2.424,8.179,17.027,9.462c14.602,1.284,33.057-4.975,38.512-3.209c0,0,3.211,1.765,5.137-0.643
	C259.213,91.987,256.164,90.223,250.869,91.347z M148.953,91.792c-1.323-1.083,0.241-3.69,2.167-4.813
	c1.925-1.124,3.948-1.409,3.948-1.409s0.16,2.407,0.963,3.21C156.031,88.779,151.588,93.948,148.953,91.792z M180.607,82.646
	c0,0-1.686-3.37-0.604-3.611C182.383,78.507,180.607,82.646,180.607,82.646z"/>
<path fill="#F7D2B6" d="M38.975,93.352c0,0,7.462-28.148,26.458-52.731c14.731-19.065,40.896-35.979,48.494-35.533
	c0,0,1.816-1.271,3.255,0.168c1.531,1.531,0.72,3.236-2.517,3.236c-8.48,0-31.578,11.345-48.339,32.575
	C54.221,56.4,51.354,64.31,43.532,89.115c0,0-2.458,9.161-2.458,11.173c0,0-8.75,2.592-8.571-3.341
	c0.307-10.104-8.511-27.668-20.131-33.479c0,0,0,1.564-1.788,1.788c-1.788,0.223-3.701-3.853-2.137-6.534
	c1.565-2.682,2.906-3.8,7.151-0.671C19.844,61.181,30.036,63.629,38.975,93.352z"/>
<path fill="#F7D2B6" d="M55.199,89.306c0,0,1.501,5.57,6.315,3.966s6.001-8.86,8.249-9.663c2.246-0.802,2.664,3.726,2.664,3.726
	s-2.086,4.813,1.604,5.616s2.407-4.654,2.407-4.654c2.568-2.888,5.135,1.124,6.9,2.568s3.53-0.16,3.53-0.16
	c4.172,3.209,9.01-0.597,9.01-0.597c4.453,2.528,8.184-2.888,8.184-2.888c2.648,7.101,10.591,0.48,10.591,0.48
	s-0.361,8.305,7.197,6.373c5.92-1.513,7.221-9.948,3.049-12.517c-4.172-2.567-8.344,0.802-8.344,0.802
	c-2.247,0.963-2.086,4.173-2.086,4.173s0,0-2.728,1.444s-4.654-2.728-4.012-4.333c0.642-1.604-0.481-2.246-2.407-1.444
	c-1.926,0.803-1.926,3.852-1.926,3.852c-4.012,6.259-7.381,3.05-7.381,3.05s1.187-3.084-1.34-4.528
	c-1.481-0.846-0.425-2.052-0.425-2.052c0.481-1.765-4.17-2.59-4.333-0.962c-0.321,3.21-0.899,4.258-3.788,6.985
	c-2.889,2.729-3.009-3.37-6.258-3.851c-3.708-0.55-4.557,1.196-4.557,1.196s-0.802-3.369-3.691-4.492
	c-2.888-1.123-3.667,2.092-3.667,2.092c-1.564,3.25-2.527,6.619-5.777,7.703c-2.163,0.721-4.035-2.896-3.394-5.623
	c0.642-2.728,0.963-4.653-2.086-4.012S55.199,89.306,55.199,89.306 M93.832,88.062l-3.49-1.323c0,0,0.858-0.367,1.34-2.935
	c0,0-0.022,0.993,1.283,1.926C94.089,86.532,93.832,88.062,93.832,88.062z M124.579,89.741c-1.444,3.369-6.419,4.172-6.579-1.284
	c-0.161-5.455,2.888-5.456,2.888-5.456c0.181-0.058,0.356-0.105,0.525-0.145C125.429,81.942,125.965,86.507,124.579,89.741z"/>
<path fill="#F7D2B6" d="M59.628,70.083c0,0-2.745,2.212-4.309,2.453s-1.588,1.158,0.458,2.241s3.37,0.481,4.573-1.083
	C61.554,72.129,61.193,69,59.628,70.083z"/>
<path fill="#F7D2B6" d="M105.988,74.102c0,0-1.926-0.361-1.805,1.443c0.121,1.806,1.823,2.267,3.851,1.203
	c2.527-1.323,2.287-1.083,1.564-1.563c-0.722-0.482-0.361,0-1.324-0.241S105.988,74.102,105.988,74.102z"/>
<path fill="#F7D2B6" d="M168.588,77.786c0,0-2.408-1.806-3.25-0.603c-0.842,1.204-0.24,2.167,1.324,2.769s2.391-0.797,2.872-2
	C170.016,76.748,168.588,77.786,168.588,77.786z"/>
<path fill="#F7D2B6" d="M117.662,85.654c0,0,6.018-2.166,6.259-3.73l0.963,0.24c0,0-0.723,1.686-7.222,4.333"/>
<path fill="#F7D2B6" d="M119.227,82.405c0,0,2.648,1.083-0.241,2.768c0,0,5.055-1.926,4.935-3.249"/>
<path fill="#F7D2B6" d="M125.846,82.525c0,0,2.166,3.129,5.295-0.24l0.241,1.083c0,0-1.564,2.647-5.055,0.722"/>
<path fill="#F7D2B6" d="M250.869,91.347c-5.295,1.123-18.27,5.26-26.936,5.741s-23.83-2.968-24.15-10.028
	c0,0,3.529-2.89,1.926-5.136c-1.605-2.246-6.179-3.61-5.576,4.935c0,0-0.241,3.972-4.574,3.49c-4.332-0.481-2.287-4.935-4.396-7.187
	c0,0-3.867,2.975-5.954,0.567c0,0,1.685-3.611,0.338-4.9c-2.139-2.045-4.911-1.118-4.976,2.086
	c-0.039,1.965,2.592,4.018,2.592,4.018s-1.686,4.854-5.536,5.656c-3.851,0.803-4.597-2.612-4.437-3.094s0.963-3.37-1.283-3.691
	c-2.248-0.32-2.584,4.379-2.584,4.379s-2.703,4.757-4.694,2.526c-3.69-4.132-0.642-8.144-3.852-8.625c0,0-1.243-0.4-4.935,0.562
	c-3.69,0.962-6.018,4.332-6.562,6.773c0,0-2.945,3.216-4.332-1.443c-0.623-2.093-0.963-4.012-3.852-4.814s-3.531,1.444-3.531,1.444
	s-3.048-4.814-3.37-0.642c-0.235,3.057,1.284,5.135,0.803,6.578c-0.481,1.444,0.962,4.173,2.567,2.567
	c1.605-1.604,0.398-2.798,0.963-4.653c1.124-3.69,3.049-2.246,4.012,0.643c0.963,2.888,3.795,3.655,6.924,1.369
	c0,0,1.902,3.926,5.914,3.444c4.012-0.48,5.296-3.209,5.296-3.209s2.872,5.421,8.89-1.078c0,0,3.4,5.9,8.906,2.648
	c4.678-2.763,6.018-7.102,6.018-7.102s2.871,1.53,4.934,0.241c0,0,0.152,5.439,4.951,5.933c5.521,0.566,6.242-2.562,6.242-2.562
	s2.424,8.179,17.027,9.462c14.602,1.284,33.057-4.975,38.512-3.209c0,0,3.211,1.765,5.137-0.643
	C259.213,91.987,256.164,90.223,250.869,91.347z M148.953,91.792c-1.323-1.083,0.241-3.69,2.167-4.813
	c1.925-1.124,3.948-1.409,3.948-1.409s0.16,2.407,0.963,3.21C156.031,88.779,151.588,93.948,148.953,91.792z M180.607,82.646
	c0,0-1.686-3.37-0.604-3.611C182.383,78.507,180.607,82.646,180.607,82.646z"/>
</svg>
